<?xml version="1.0" encoding="UTF-8" standalone="no"?>
<!-- Created with Inkscape (http://www.inkscape.org/) -->

<svg width="58.749027mm" height="76.768257mm" viewBox="0 0 58.749027 76.768257" version="1.1" id="svg5" sodipodi:docname="dustbin - Copy.svg" inkscape:version="1.2 (dc2aedaf03, 2022-05-15)" xmlns:inkscape="http://www.inkscape.org/namespaces/inkscape" xmlns:sodipodi="http://sodipodi.sourceforge.net/DTD/sodipodi-0.dtd" xmlns="http://www.w3.org/2000/svg" xmlns:svg="http://www.w3.org/2000/svg">
 <sodipodi:namedview id="namedview7" pagecolor="#ffffff" bordercolor="#000000" borderopacity="0.25" inkscape:showpageshadow="2" inkscape:pageopacity="0.0" inkscape:pagecheckerboard="0" inkscape:deskcolor="#d1d1d1" inkscape:document-units="mm" showgrid="false" inkscape:zoom="2.025849" inkscape:cx="95.2687" inkscape:cy="161.41381" inkscape:window-width="1920" inkscape:window-height="1012" inkscape:window-x="-8" inkscape:window-y="-8" inkscape:window-maximized="1" inkscape:current-layer="layer1" />
 <defs id="defs2" />
 <g inkscape:label="Layer 1" inkscape:groupmode="layer" id="layer1" transform="translate(-66.855033,-34.791781)">
  <path style="display:none;stroke:#000000;stroke-width:2.6;stroke-linecap:round;stroke-linejoin:round" d="m 74.619238,55.564494 v 8.509558 c -0.02623,-0.149233 -0.05088,-0.299395 -0.05891,-0.445967 -0.01968,-0.35941 0.01572,-0.721445 0,-1.081071 V 59.61541 55.596534 c 0.02019,-0.0102 0.03983,-0.02076 0.05891,-0.03204 z" id="path981" />
  <path style="display:none;stroke:#000000;stroke-width:2.6;stroke-linecap:round;stroke-linejoin:round" d="m 74.788737,51.879448 c -0.04663,0.134027 -0.08571,0.271361 -0.113172,0.413411 -0.107507,-0.07447 -0.236001,-0.135642 -0.387056,-0.1788 -0.107967,-0.03085 -0.216325,-0.06 -0.325045,-0.08733 h 0.221692 c 0.240196,0 0.44116,-0.05509 0.603581,-0.147278 z" id="path979" />
  <path id="path977" style="display:inline;fill:#000000;fill-opacity:1;stroke:none;stroke-width:2.59999;stroke-linecap:round;stroke-linejoin:round" d="m 76.429734,49.869751 c -1.002774,0 -1.894268,0.426444 -2.481405,1.096574 -0.0057,-0.520713 -0.4021,-1.037662 -1.189329,-1.037662 h -2.02733 -0.959528 c -1.57411,0 -1.585434,2.066722 -0.03481,2.097546 -0.573582,0.421046 -0.629409,0.978194 -0.667858,1.636593 -0.0018,0.0409 -0.0011,0.08061 5.53e-4,0.119372 -0.873176,0.489392 -0.650917,1.938383 0.667305,1.938383 h 0.591627 0.588311 v 3.894853 2.931604 c -0.04596,0.725888 0.03814,1.438079 0.144731,2.154907 0.156301,0.547008 0.253946,1.088431 0.267917,1.653129 0.0034,0.620168 -0.01195,1.240214 -0.01712,1.860352 -0.0036,0.639049 -0.0018,1.278141 -0.001,1.917195 5.65e-4,0.914917 5.52e-4,1.830135 5.52e-4,2.745052 0.0023,0.707736 -0.02051,1.414209 0.0431,2.119768 0.07632,0.754973 0.250993,1.492466 0.462917,2.222603 0.23472,0.708943 0.667168,1.336575 1.001511,2.004529 0.142796,0.227048 0.27229,0.458907 0.403255,0.690397 v 28.644764 c 0,1.662 1.430092,3.00033 3.206715,3.00033 h 39.392602 c 1.77661,0 3.2067,-1.33833 3.2067,-3.00033 V 80.793445 c 0.53774,0.655136 1.8587,0.540331 2.01076,-0.578259 0.098,-0.733264 0.11787,-1.465769 0.10497,-2.204517 0.009,-0.914044 0.0321,-1.829361 -0.0265,-2.742468 -0.0794,-0.909009 -0.25434,-1.804062 -0.33974,-2.712496 -0.0708,-0.784694 -0.0169,-1.574291 -0.0387,-2.361096 -0.007,-0.948026 -0.0266,-1.895762 -0.006,-2.843754 0.0296,-0.661493 0.14588,-1.299644 0.29554,-1.946135 0.13141,-0.752706 0.22416,-1.510233 0.2878,-2.270662 -0.002,-0.5963 0.006,-1.193203 0.15468,-1.777152 0.15561,-0.719884 0.28895,-1.443518 0.53361,-2.144056 0.19856,-0.756997 0.55379,-1.462607 0.73085,-2.225187 0.33167,-1.124975 0.54167,-2.275674 0.44081,-3.447335 -0.12844,-1.210991 -0.37431,-2.264928 -1.47106,-3.046325 -0.15411,-0.109802 -0.3422,-0.170606 -0.51318,-0.255799 -1.50456,-0.469157 -2.21384,1.521418 -0.70928,1.990577 0.15057,0.130385 0.032,0.0074 0.13976,0.198954 0.0462,0.08228 0.11272,0.154933 0.15079,0.240812 0.14233,0.320958 0.14055,0.723721 0.16904,1.061951 0.0703,0.916171 -0.0987,1.814074 -0.36679,2.691308 -0.19725,0.773687 -0.52942,1.502647 -0.74464,2.27273 -0.25492,0.732704 -0.39137,1.490673 -0.55739,2.242757 -0.17884,0.723335 -0.20124,1.462375 -0.19996,2.200899 -0.0147,0.130534 -0.0296,0.26081 -0.0448,0.391191 V 52.869568 c 0,-1.661994 -1.43009,-2.999817 -3.2067,-2.999817 z m 19.501575,4.432288 h 1.357261 c 1.776622,0 3.20727,1.153348 3.20727,2.585889 V 103.0634 c 0,1.43255 -1.430643,2.58593 -3.20727,2.58589 h -1.357261 c -1.776622,0 -3.207271,-1.15334 -3.207267,-2.58589 V 56.887928 c 0,-1.432541 1.430644,-2.585891 3.207267,-2.585889 z m -15.281747,0.01085 c 1.628139,0.04481 2.96515,1.072603 3.065298,2.412256 l 3.444801,46.085565 c 0.106822,1.42896 -1.234767,2.65559 -3.008401,2.75073 l -1.35284,0.0729 c -1.773636,0.0951 -3.287709,-0.97864 -3.394535,-2.40761 L 75.958532,57.141142 c -0.106822,-1.428963 1.235321,-2.656107 3.008953,-2.751253 l 1.352842,-0.07286 c 0.110853,-0.0059 0.220692,-0.0071 0.329235,-0.0041 z m 31.799778,0 c 0.10854,-0.003 0.21838,-0.0018 0.32923,0.0041 l 1.35284,0.07286 c 1.77365,0.09515 3.11523,1.322291 3.00841,2.751253 l -3.4448,46.085558 c -0.10679,1.42896 -1.62092,2.50276 -3.39453,2.40761 l -1.35285,-0.0729 c -1.77364,-0.0952 -3.11577,-1.32177 -3.00895,-2.75073 l 3.44536,-46.085563 c 0.10018,-1.339654 1.43715,-2.367451 3.06529,-2.412256 z" />
  <path style="display:inline;fill:#000000;fill-opacity:1;stroke:#000000;stroke-width:2.6;stroke-linecap:round;stroke-linejoin:round" d="m 69.500171,49.68475 4.987292,59.47389 z" id="path973" />
  <path style="display:inline;fill:#000000;fill-opacity:1;stroke:#000000;stroke-width:2.6;stroke-linecap:round;stroke-linejoin:round" d="M 69.262976,48.945777 H 122.64163 Z" id="path971" />
  <path style="display:inline;fill:#000000;fill-opacity:1;stroke:#000000;stroke-width:2.6;stroke-linecap:round;stroke-linejoin:round" d="m 71.15485,38.972225 c -1.661996,0 -2.999817,0.98851 -2.999817,2.216403 0,1.227892 1.337821,2.216402 2.999817,2.216402 h 50.14939 c 1.662,0 2.99982,-0.98851 2.99982,-2.216402 0,-1.227893 -1.33782,-2.216403 -2.99982,-2.216403 z" id="path969" />
  <path style="display:inline;fill:#000000;fill-opacity:1;stroke:#000000;stroke-width:2.6;stroke-linecap:round;stroke-linejoin:round" d="m 77.065083,36.091781 c -1.661996,0 -2.999816,0.576673 -2.999816,1.292944 0,0.716272 1.33782,1.292945 2.999816,1.292945 h 38.143927 c 1.662,0 2.99982,-0.576673 2.99982,-1.292945 0,-0.716271 -1.33782,-1.292944 -2.99982,-1.292944 z" id="path9724" />
  <path style="display:inline;fill:#000000;fill-opacity:1;stroke:#000000;stroke-width:2.6;stroke-linecap:round;stroke-linejoin:round" d="m 122.64179,49.68475 -4.98732,59.47389 z" id="path3327" />
  <path style="fill:#000000;fill-opacity:1;fill-rule:nonzero;stroke:none;stroke-width:0.264583" id="path3329" d="m 118.09738,52.296738 c 0.49104,0.08926 1.00128,0.05904 1.49058,0.149028 0.79682,0.341368 0.5882,-1.943835 0.0551,-1.973668 -0.15032,-0.0084 -0.30109,0.0033 -0.45164,0.003 -0.47098,-0.0056 -0.94194,-0.01228 -1.41295,-0.01589 0.71737,0.01496 -0.23524,-0.01471 0.38729,2.020398 0.0244,0.07981 0.15333,-0.06603 0.23086,-0.09693 0.22293,-0.08884 0.45532,-0.156338 0.68254,-0.232958 1.32706,-0.37181 0.61368,0.405216 1.26194,-2.085182 -0.68949,-0.404033 -1.47622,-0.402175 -2.25081,-0.405997 -0.10631,9.52e-4 -0.21263,0.0016 -0.31893,0.0028 -0.10271,0.0012 -0.40596,0.0063 -0.52022,0.0086 -0.0495,9.79e-4 -0.14749,-0.04607 -0.14849,0.0034 -0.0438,2.176399 -0.57788,2.095066 0.33815,2.102136 0.62136,0.0685 1.2415,0.1572 1.85862,0.258192 0.25209,0.06752 0.50991,0.116542 0.76109,0.187445 0.0325,0.0092 0.12469,0.05121 0.0945,0.03618 -0.39134,-0.194758 -0.20111,-0.03636 -0.46192,-0.317387 -0.005,0.01347 -0.0136,0.02613 -0.0147,0.04042 -0.0274,0.340259 0.0351,0.03698 -0.0339,0.459672 -0.0427,0.261432 -0.13139,0.499361 -0.23083,0.743079 -0.0309,0.05691 -0.0568,0.116861 -0.0927,0.170727 -0.0115,0.01717 -0.0333,0.02478 -0.0476,0.03959 -0.071,0.0731 -0.18791,0.219181 -0.23913,0.289975 -0.1939,0.26802 -0.16137,0.243788 -0.32104,0.579482 -0.0395,0.172149 -0.0909,0.341977 -0.11837,0.516445 -0.0888,0.564657 -0.0261,1.148502 0.007,1.714561 0.0559,0.952374 0.0181,0.246914 0.0661,1.185113 0.031,0.640537 0.0473,1.28182 0.0388,1.923083 0.0194,-0.752174 -0.0246,0.385188 2.09388,-0.188235 0.13579,-0.03675 -0.001,-0.281346 -0.001,-0.42202 -0.002,-0.715407 -0.001,-1.430819 -0.001,-2.146227 9e-5,-1.405273 5.2e-4,-2.810546 5.2e-4,-4.215819 3e-5,-0.444271 3e-5,-0.497782 4e-5,-0.910937 0,-0.902683 0.0797,-0.574083 -2.09816,-0.127282 -0.10376,0.02129 -10e-6,0.211849 -10e-6,0.317773 0,0.178465 -1e-5,0.356929 -1e-5,0.535393 -1e-5,1.806577 -1e-5,3.613153 -1e-5,5.41973 0,1.343266 0,2.686532 0,4.029798 0.0444,0.425501 -0.0463,0.83203 -0.10276,1.249437 0.0148,0.157112 -0.11337,0.466243 0.0444,0.471337 0.70347,0.02273 1.42381,-0.130332 2.07269,-0.402963 0.1482,-0.06227 0.0237,-0.320652 0.0317,-0.481203 0.0407,-0.821066 0.0773,-1.639854 0.13349,-2.460301 0.0793,-1.47517 0.29827,-2.939299 0.5507,-4.393663 0.13239,-0.70588 0.1818,-1.420908 0.17105,-2.137815 0.0234,0.06149 0.0867,-0.756182 0.10498,-0.595877 -0.22461,0.697544 -0.72115,0.683805 -1.3623,0.41771 -0.0924,-0.03836 -0.11156,-0.198315 -0.21037,-0.214131 -0.0596,-0.0095 0.003,0.120716 0.004,0.181074 0.0394,1.119282 0.0505,2.244509 -0.0159,3.363052 -0.0308,0.348762 -0.0457,0.697947 -0.10982,1.04261 -0.0129,0.0692 -0.0238,0.138943 -0.0419,0.206944 -0.006,0.02126 -0.0326,0.08096 -0.0291,0.05923 0.007,-0.04349 0.0265,-0.084 0.0398,-0.126 1.02916,-0.776559 0.0952,-0.324056 1.74186,0.107087 0.069,0.01807 -0.004,-0.142648 -0.006,-0.213969 -0.005,-0.187016 -0.0112,-0.374027 -0.0168,-0.561041 -0.0505,-1.482752 -2.14747,-1.411276 -2.09693,0.07148 v 0 c 5.3e-4,0.0149 0.0233,1.184976 0.0991,1.26845 1.20761,1.329602 1.0256,1.135841 2.0187,0.500601 0.0695,-0.125444 0.15062,-0.245123 0.20851,-0.376332 0.24532,-0.55601 0.21055,-1.269504 0.28739,-1.859291 0.069,-1.247973 0.0699,-2.503995 0.002,-3.751773 -0.066,-0.403971 -0.0914,-0.953745 -0.45557,-1.243729 -0.6802,-0.541625 -1.41535,-0.461582 -1.90031,0.207035 -0.0833,0.114846 -0.12288,0.25576 -0.18433,0.383641 -0.0845,0.383712 -0.14637,0.775122 -0.17468,1.167277 0.0104,0.585549 -0.0307,1.16901 -0.1405,1.745413 -0.26416,1.525716 -0.49228,3.061599 -0.57664,4.608959 -0.0562,0.823986 -0.0966,1.646036 -0.13418,2.470826 -0.006,0.126871 -0.14717,0.354344 -0.0229,0.380323 2.18358,0.456324 1.9776,-0.718915 2.04783,0.442254 0.0663,-0.507651 0.16393,-1.010918 0.12115,-1.526649 0,-1.343267 0,-2.686533 0,-4.029799 0,-1.806567 0,-3.613133 1e-5,-5.4197 0,-0.178455 0,-0.35691 1e-5,-0.535364 0,-0.105895 0.10374,-0.296401 10e-6,-0.317684 -2.17815,-0.446896 -2.09813,-0.775529 -2.09814,0.127098 0,0.413087 -1e-5,0.46659 -3e-5,0.910789 -1.2e-4,1.405432 -5.3e-4,2.810864 -5.3e-4,4.216296 1e-4,0.717534 -1.9e-4,1.435071 0.001,2.152604 2.7e-4,0.144477 -0.13506,0.385954 10e-4,0.43343 2.10486,0.73234 2.05771,0.980936 2.10216,0.197327 0.009,-0.686074 -0.008,-1.372173 -0.0414,-2.057469 -0.0366,-0.714926 -0.11256,-1.435173 -0.11614,-2.151169 -5.3e-4,-0.09248 0.0146,-0.184622 0.0138,-0.277101 -1.8e-4,-0.02095 -0.0111,-0.0404 -0.0167,-0.06059 -0.0229,-0.05693 0.10037,-0.184301 0.12756,-0.217585 0.23239,-0.284476 0.46691,-0.566383 0.5956,-0.917627 0.32745,-0.858225 0.53057,-1.763487 0.31398,-2.67752 -0.10435,-0.20289 -0.16484,-0.435221 -0.31306,-0.608667 -0.43227,-0.505834 -1.13952,-0.546108 -1.73385,-0.699026 -0.72308,-0.115905 -1.44893,-0.229714 -2.17929,-0.285081 -0.8782,-0.0052 -0.32985,-0.06585 -0.30395,2.093541 5.3e-4,0.04571 0.0914,-0.0023 0.13711,-0.0032 0.10956,-0.0022 0.40228,-0.0071 0.50229,-0.0083 0.0971,-0.0012 0.19414,-0.0019 0.29121,-0.0028 0.26574,7.67e-4 0.53104,0.0026 0.79627,0.02144 0.0564,0.004 0.11267,0.0092 0.16871,0.01639 0.037,0.0047 0.10591,0.05641 0.11036,0.01933 0.005,-0.0452 -0.0678,-0.06075 -0.10173,-0.09112 0.2279,-0.602793 0.50158,-1.19021 0.6837,-1.808378 0.0145,-0.0491 -0.10234,0.0039 -0.15335,0.0081 -0.40067,0.03345 -0.79448,0.116397 -1.17737,0.239168 -1.4374,0.485089 -0.97538,0.04978 -0.69255,2.394293 0.002,0.01538 0.031,9e-4 0.0465,0.0013 0.47608,0.0036 0.95211,0.01057 1.42816,0.01595 0.10625,-5.7e-5 0.98504,0.03119 1.00686,-0.05482 0.49975,-1.970011 0.68723,-1.962586 -0.297,-2.147434 -0.59773,-0.08191 -1.20313,-0.106804 -1.80301,-0.172421 -1.48361,0 -1.48361,2.098146 0,2.098146 z" />
  <path style="fill:#000000;fill-opacity:1;fill-rule:nonzero;stroke:none;stroke-width:0.264583" id="path3331" d="m 118.54707,52.331751 c 0.46585,0.489226 0.94645,0.970079 1.33969,1.522091 0.23307,0.327175 0.26437,0.416346 0.44085,0.75963 0.0536,0.148187 0.13456,0.334501 0.15224,0.498391 0.001,0.0086 -0.0259,0.0039 -0.0255,-0.0048 0.005,-0.124954 -0.004,-0.255868 0.0392,-0.373052 0.0896,-0.240833 0.19621,-0.282242 0.37463,-0.399582 -0.10179,-0.194775 0.44499,0.0318 0.44062,-0.09646 -0.003,-0.101956 -0.0599,-0.195178 -0.0839,-0.294322 -0.0794,-0.327605 -0.13996,-0.679941 -0.20153,-1.009874 -0.13255,-0.752811 -0.12533,-1.51705 -0.1776,-2.276979 -0.10186,-1.480112 -2.19506,-1.33605 -2.09319,0.144062 v 0 c 0.058,0.841746 0.0513,1.688722 0.20894,2.521485 0.1932,1.016541 0.43292,2.620221 1.61091,2.97617 0.24087,0.07278 0.50012,0.05617 0.75018,0.08426 0.47479,-0.169008 0.73399,-0.175407 1.02459,-0.66583 0.40853,-0.68946 0.11418,-1.424758 -0.16416,-2.08319 -0.095,-0.176678 -0.18172,-0.358033 -0.28492,-0.530034 -0.47202,-0.786663 -1.09668,-1.466236 -1.73915,-2.115209 -0.94979,-1.139743 -2.56163,0.203457 -1.61184,1.3432 z" />
  <path style="fill:#000000;fill-opacity:1;fill-rule:nonzero;stroke:none;stroke-width:0.264583" id="path3333" d="m 74.758033,49.973142 c -0.09564,0.0092 -0.191185,0.01942 -0.286921,0.02755 -0.124001,0.01053 -0.247904,0.02365 -0.37226,0.02841 -0.07971,0.0031 -0.160847,-0.01963 -0.239255,-0.005 -0.06617,0.01238 0.183523,-0.05285 0.201614,0.012 0.523129,1.875175 -0.323213,1.895902 0.491112,1.818744 0.611204,-0.117814 1.230294,-0.241769 1.855536,-0.238316 0.0055,0.001 0.01664,0.0086 0.0164,0.0031 -0.09682,-2.255456 0.54196,-2.090121 -0.550683,-2.078084 -0.29047,0.0032 -0.59248,0.0038 -0.882615,0.0049 -0.776202,0.02283 -1.556329,-0.04118 -2.33011,0.03135 -0.868201,0.140907 -1.286616,0.569001 -1.224689,1.547389 0.02922,0.461642 0.478334,0.697672 0.778291,0.935578 0.761407,0.347902 1.602037,0.271758 2.416227,0.256282 0.83186,-0.01722 1.66387,-0.022 2.495882,-0.02246 0.33925,1.66e-4 0.678499,0.001 1.017749,0.0017 1.48361,0.003 1.487918,-2.095095 0.0043,-2.098142 v 0 c -0.34108,-6.88e-4 -0.68216,-0.0015 -1.023241,-0.0017 -0.844945,4.76e-4 -1.689887,0.0054 -2.534677,0.02284 -0.238337,0.0046 -0.545769,0.01124 -0.7865,0.01285 -0.160677,0.0011 -0.365215,-0.02864 -0.528966,-0.0096 -0.0087,0.001 -0.01378,0.01069 -0.02067,0.01604 0.05297,0.06869 0.119887,0.128603 0.158908,0.206073 0.264691,0.525507 -0.05338,1.117705 -0.601585,1.237963 -0.02929,0.0064 0.05844,-0.01352 0.08765,-0.02029 0.189223,-0.03542 0.0637,-0.0181 0.378909,-0.0177 0.573549,7.41e-4 1.147099,0.0013 1.720647,-4.9e-5 0.406689,-0.0016 0.813673,-8.7e-5 1.220272,-0.01043 0.09307,-0.0024 0.264739,0.0822 0.279143,-0.0098 0.108283,-0.6915 0.08357,-1.399986 0.0511,-2.099159 -0.0023,-0.04963 -0.09927,-0.0045 -0.148899,-0.0068 -0.805199,0.0068 -1.603402,0.137734 -2.388681,0.309062 -1.122635,0.352681 -1.091546,0.119039 -0.620779,2.196953 0.03437,0.151692 0.301663,0.08061 0.456247,0.0978 0.401169,0.04461 0.808544,-0.05002 1.207256,-0.07206 1.468702,-0.209815 1.17198,-2.286873 -0.296722,-2.077059 z" />
 </g>
</svg>
